<svg version="1.1" xmlns="http://www.w3.org/2000/svg" viewBox="0 0 775 351" preserveAspectRatio="xMidYMid meet" xmlns:xlink="http://www.w3.org/1999/xlink" xmlns:svgjs="http://svgjs.dev/svgjs">

<path d="M0 0 C0.998 0.084 1.995 0.168 3.023 0.254 C12.487 1.256 21.328 5.319 28.078 12.082 C30.874 16.113 32.079 19.792 32.448 24.65 C33.112 32.145 33.112 32.145 36 39 C42.128 41.82 48.134 41.146 54.746 40.75 C56.637 40.707 58.529 40.673 60.42 40.647 C65.413 40.557 70.395 40.357 75.383 40.13 C81.399 39.874 87.419 39.737 93.438 39.594 C98.134 39.482 102.825 39.349 107.518 39.147 C124.83 38.477 140.202 41.292 153.938 52.812 C164.787 63.259 170.792 76.056 171.336 91.036 C171.626 107.369 165.974 120.007 155 132 C142.358 143.529 125.413 147.372 108.742 147.195 C107.199 147.191 107.199 147.191 105.624 147.187 C102.374 147.176 99.125 147.151 95.875 147.125 C93.656 147.115 91.438 147.106 89.219 147.098 C83.812 147.077 78.406 147.038 73 147 C73 132.81 73 118.62 73 104 C66.056 104.046 59.112 104.093 51.957 104.141 C47.559 104.161 43.161 104.18 38.764 104.195 C31.782 104.219 24.801 104.248 17.82 104.302 C12.192 104.345 6.564 104.369 0.936 104.38 C-1.212 104.387 -3.36 104.401 -5.507 104.423 C-8.515 104.452 -11.521 104.456 -14.528 104.454 C-15.417 104.468 -16.306 104.483 -17.222 104.498 C-21.316 104.47 -23.48 104.312 -27.061 102.163 C-29 100 -29 100 -29.5 96.938 C-29 94 -29 94 -27.966 92.335 C-24.88 90.239 -21.64 90.629 -18.04 90.695 C-16.825 90.699 -16.825 90.699 -15.586 90.703 C-13.828 90.71 -12.07 90.723 -10.312 90.742 C-7.534 90.77 -4.758 90.775 -1.981 90.773 C5.914 90.769 13.809 90.793 21.703 90.866 C26.531 90.909 31.358 90.914 36.186 90.894 C38.031 90.894 39.876 90.91 41.72 90.939 C44.291 90.98 46.858 90.972 49.428 90.952 C50.2 90.977 50.971 91.001 51.766 91.025 C54.081 91.073 54.081 91.073 57 90 C57.885 87.247 57.911 84.747 57 82 C53.892 81.121 51.984 80.971 48.828 81.07 C47.577 81.061 47.577 81.061 46.301 81.052 C43.616 81.039 40.935 81.08 38.25 81.125 C35.58 81.138 32.911 81.141 30.242 81.134 C28.577 81.133 26.912 81.146 25.247 81.174 C17.818 81.232 17.818 81.232 15 79 C14 75.625 14 75.625 14 72 C15.524 69.802 15.524 69.802 18 68 C20.679 67.626 22.941 67.492 25.614 67.546 C26.756 67.545 26.756 67.545 27.921 67.544 C30.432 67.547 32.942 67.578 35.453 67.609 C37.196 67.617 38.939 67.623 40.682 67.627 C45.266 67.642 49.849 67.681 54.432 67.725 C59.934 67.773 65.436 67.792 70.937 67.815 C79.292 67.854 87.645 67.931 96 68 C96 87.14 96 106.28 96 126 C120.517 126.461 120.517 126.461 139.863 115.48 C142.89 111.966 144.658 108.415 146 104 C146.186 103.408 146.371 102.817 146.562 102.207 C148.486 92.506 147.841 83.158 142.816 74.555 C137.162 66.602 129.555 62.08 120 60 C112.498 59.112 104.904 59.35 97.363 59.398 C95.189 59.393 93.016 59.385 90.842 59.374 C85.159 59.351 79.477 59.355 73.795 59.368 C64.662 59.386 55.53 59.376 46.397 59.342 C43.21 59.336 40.022 59.349 36.835 59.364 C34.895 59.361 32.956 59.358 31.017 59.353 C30.128 59.362 29.239 59.372 28.324 59.381 C25.873 59.365 25.873 59.365 22 59 C19.969 55.954 19.504 54.268 18.852 50.738 C18.65 49.701 18.449 48.664 18.242 47.596 C17.835 45.427 17.431 43.258 17.031 41.088 C15.576 33.631 14.006 26.2 8 21 C5.092 20.017 5.092 20.017 1.812 19.375 C0.654 19.121 -0.505 18.867 -1.699 18.605 C-4.344 18.12 -6.825 17.836 -9.5 17.688 C-12.999 17 -13.712 16.766 -16 14.312 C-18.219 10.637 -18.872 9.185 -18 5 C-13.983 -3.183 -8.058 -1.246 0 0 Z " fill="#090909" transform="translate(86,111)"></path>
<path d="M0 0 C0.289 5.931 -0.779 11.021 -2.25 16.75 C-3.651 22.348 -5.02 27.931 -6.117 33.598 C-6.288 34.475 -6.459 35.353 -6.636 36.257 C-6.958 37.939 -7.269 39.623 -7.567 41.31 C-8.008 43.582 -8.008 43.582 -9 47 C-9.99 47 -10.98 47 -12 47 C-13.92 44.466 -15.522 41.799 -17.184 39.09 C-17.783 38.4 -18.382 37.711 -19 37 C-21.6 37 -22.587 37.589 -24.414 39.41 C-24.814 39.955 -25.213 40.501 -25.625 41.062 C-26.409 42.032 -27.192 43.001 -28 44 C-28.66 44 -29.32 44 -30 44 C-30 44.66 -30 45.32 -30 46 C-30.66 46 -31.32 46 -32 46 C-32.33 46.99 -32.66 47.98 -33 49 C-34.742 50.684 -34.742 50.684 -36.875 52.438 C-39.081 54.257 -40.885 55.842 -42.57 58.16 C-44 60 -44 60 -47 61 C-48.52 62.496 -48.52 62.496 -49.938 64.312 C-52.177 67.023 -54.469 69.554 -57 72 C-57.577 72.598 -58.155 73.196 -58.75 73.812 C-60.653 75.662 -62.593 77.377 -64.608 79.1 C-69.138 83.052 -73.327 87.286 -77.516 91.594 C-79.111 93.217 -80.708 94.839 -82.305 96.461 C-84.795 98.995 -87.281 101.532 -89.757 104.079 C-92.165 106.554 -94.589 109.012 -97.016 111.469 C-98.128 112.625 -98.128 112.625 -99.263 113.804 C-99.958 114.502 -100.652 115.201 -101.368 115.92 C-101.975 116.541 -102.581 117.161 -103.206 117.801 C-105 119 -105 119 -107.038 118.818 C-110.179 117.509 -112.788 115.457 -115.5 113.438 C-116.754 112.522 -118.009 111.608 -119.266 110.695 C-119.893 110.239 -120.52 109.783 -121.166 109.313 C-124.77 106.732 -128.485 104.318 -132.184 101.875 C-134.918 100.054 -137.621 98.196 -140.312 96.312 C-141.116 95.752 -141.919 95.191 -142.746 94.613 C-144.196 93.576 -145.628 92.512 -147.035 91.418 C-150.156 88.755 -150.156 88.755 -154.008 88.219 C-156.752 89.295 -158.64 91.179 -160.816 93.121 C-166.65 98.14 -172.877 102.826 -179.5 106.75 C-182.777 108.712 -184.662 110.961 -187 114 C-188.41 114.96 -189.824 115.915 -191.256 116.842 C-194.481 118.983 -197.538 121.354 -200.625 123.688 C-201.321 124.211 -202.016 124.734 -202.733 125.273 C-206.032 127.754 -209.324 130.245 -212.605 132.75 C-213.151 133.164 -213.696 133.578 -214.257 134.005 C-215.722 135.119 -217.183 136.237 -218.645 137.355 C-221 139 -221 139 -224 140 C-225.809 139.379 -225.809 139.379 -227.793 138.348 C-228.861 137.801 -228.861 137.801 -229.951 137.244 C-230.689 136.854 -231.427 136.464 -232.188 136.062 C-232.937 135.676 -233.687 135.29 -234.459 134.893 C-236.311 133.937 -238.156 132.97 -240 132 C-238.537 128.332 -236.709 126.832 -233.438 124.688 C-229.204 121.837 -225.161 118.844 -221.152 115.688 C-218.489 113.599 -215.785 111.57 -213.072 109.547 C-211.158 108.118 -209.249 106.683 -207.34 105.246 C-203.596 102.437 -199.824 99.666 -196.048 96.9 C-189.287 91.947 -182.558 87 -176.105 81.648 C-174 80 -174 80 -171.09 78.113 C-166.839 75.206 -163.299 71.697 -159.586 68.145 C-155.815 65.017 -155.815 65.017 -153 65 C-150.773 66.188 -150.773 66.188 -148.375 68 C-147.498 68.648 -146.622 69.297 -145.719 69.965 C-144.373 70.972 -144.373 70.972 -143 72 C-141.296 73.193 -139.588 74.381 -137.875 75.562 C-134.801 77.708 -131.787 79.906 -128.812 82.188 C-125.919 84.385 -122.989 86.199 -119.793 87.918 C-116.944 89.637 -114.437 91.787 -111.895 93.926 C-110.079 95.206 -110.079 95.206 -108.079 94.751 C-105.682 93.885 -104.581 92.901 -102.836 91.059 C-101.989 90.184 -101.989 90.184 -101.125 89.291 C-100.548 88.679 -99.97 88.068 -99.375 87.438 C-98.221 86.223 -97.062 85.014 -95.898 83.809 C-95.39 83.27 -94.881 82.732 -94.357 82.177 C-93 81 -93 81 -91 81 C-90.711 80.422 -90.423 79.845 -90.125 79.25 C-88.797 76.595 -87.226 74.948 -85 73 C-84.34 73 -83.68 73 -83 73 C-82.67 72.01 -82.34 71.02 -82 70 C-80.487 68.507 -80.487 68.507 -78.533 66.902 C-73.588 62.703 -69.04 58.166 -64.469 53.566 C-63.592 52.688 -62.716 51.811 -61.813 50.906 C-59.039 48.127 -56.27 45.345 -53.5 42.562 C-51.61 40.667 -49.719 38.772 -47.828 36.877 C-43.216 32.254 -38.607 27.628 -34 23 C-37.386 19.429 -41.344 17.622 -45.699 15.402 C-46.458 14.94 -47.218 14.477 -48 14 C-48 13.34 -48 12.68 -48 12 C-44.701 9.877 -41.028 9.159 -37.25 8.25 C-35.833 7.907 -34.417 7.563 -33 7.219 C-32.216 7.029 -31.433 6.84 -30.625 6.645 C-27.662 5.917 -24.706 5.163 -21.75 4.406 C-20.676 4.133 -19.602 3.859 -18.495 3.577 C-16.354 3.031 -14.214 2.483 -12.075 1.931 C-11.086 1.68 -10.097 1.43 -9.078 1.172 C-8.195 0.946 -7.313 0.72 -6.403 0.487 C-4 0 -4 0 0 0 Z " fill="#FBBC1C" transform="translate(464,12)"></path>
<path d="M0 0 C7.26 0 14.52 0 22 0 C24.657 11.292 24.657 11.292 24.289 16.352 C24.222 17.441 24.156 18.531 24.087 19.653 C23.982 21.31 23.982 21.31 23.875 23 C23.813 25.216 23.761 27.432 23.719 29.648 C23.594 35.108 23.343 40.55 23 46 C29.86 38.461 29.86 38.461 36.375 30.625 C40.05 26.079 43.914 21.778 47.894 17.503 C51.866 13.211 55.564 8.744 59.223 4.18 C61 2 61 2 63 0 C65.614 -0.227 65.614 -0.227 68.883 -0.195 C70.633 -0.186 70.633 -0.186 72.418 -0.176 C73.641 -0.159 74.865 -0.142 76.125 -0.125 C77.356 -0.116 78.587 -0.107 79.855 -0.098 C82.904 -0.074 85.952 -0.041 89 0 C86.826 3.382 84.774 6.46 81.812 9.188 C78.862 12.044 76.263 15.051 73.688 18.25 C68.357 24.871 62.616 31.089 56.848 37.328 C56.217 38.024 55.587 38.72 54.938 39.438 C54.39 40.034 53.842 40.631 53.277 41.246 C51.813 43.257 51.319 44.535 51 47 C51.857 48.922 51.857 48.922 53.324 50.73 C53.852 51.442 54.38 52.154 54.924 52.887 C55.506 53.646 56.088 54.405 56.688 55.188 C57.901 56.816 59.113 58.445 60.324 60.074 C60.942 60.898 61.56 61.723 62.197 62.572 C64.867 66.167 67.435 69.83 70 73.5 C73.15 77.994 76.327 82.463 79.57 86.891 C80.46 88.108 80.46 88.108 81.367 89.35 C82.511 90.912 83.659 92.47 84.812 94.025 C85.331 94.734 85.849 95.442 86.383 96.172 C86.841 96.792 87.298 97.411 87.77 98.05 C89.174 100.276 90.088 102.536 91 105 C86.814 105.292 82.631 105.468 78.438 105.625 C77.256 105.709 76.075 105.793 74.857 105.879 C66.216 106.121 66.216 106.121 62.706 102.885 C60.915 100.329 59.444 97.764 58 95 C57 93.507 55.982 92.025 54.938 90.562 C54.377 89.758 53.816 88.954 53.238 88.125 C51.344 85.48 49.421 82.861 47.48 80.25 C46.848 79.398 46.216 78.547 45.565 77.67 C44.284 75.948 42.999 74.228 41.711 72.512 C41.118 71.715 40.525 70.919 39.914 70.098 C39.377 69.381 38.841 68.664 38.288 67.926 C37 66 37 66 36 63 C34.766 64.035 33.538 65.079 32.312 66.125 C31.628 66.705 30.944 67.285 30.238 67.883 C29.5 68.581 28.761 69.28 28 70 C27.074 70.753 26.149 71.506 25.195 72.281 C22.385 75.704 22.843 78.863 23.066 83.148 C23.1 83.809 23.133 84.469 23.168 85.149 C23.321 87.947 23.487 90.729 23.812 93.512 C23.889 94.211 23.966 94.909 24.045 95.629 C24.124 96.249 24.204 96.869 24.285 97.508 C24.191 99.648 24.191 99.648 22 106 C14.74 106 7.48 106 0 106 C0 71.02 0 36.04 0 0 Z " fill="#050505" transform="translate(476,152)"></path>
<path d="M0 0 C1.517 -0.043 1.517 -0.043 3.064 -0.086 C11.74 -0.108 18.247 2.291 24.812 8 C25.514 8.825 26.215 9.65 26.938 10.5 C28.02 11.676 28.02 11.676 29.125 12.875 C33.792 19.634 33.204 27.089 33.133 34.996 C33.13 36.185 33.127 37.373 33.124 38.598 C33.113 42.378 33.088 46.158 33.062 49.938 C33.052 52.507 33.043 55.077 33.035 57.646 C33.013 63.931 32.979 70.216 32.938 76.5 C26.337 76.5 19.737 76.5 12.938 76.5 C12.938 74.19 12.938 71.88 12.938 69.5 C12.453 69.898 11.968 70.297 11.469 70.707 C2.899 77.481 -4.078 79.508 -15.062 78.5 C-22.521 77.307 -28.166 74.324 -33.062 68.5 C-37.136 61.814 -37.059 55.116 -36.062 47.5 C-34.619 44.122 -32.786 41.934 -30.062 39.5 C-29.521 39 -28.98 38.5 -28.422 37.984 C-20.442 31.496 -10.257 32.235 -0.5 32.375 C0.699 32.384 1.899 32.393 3.135 32.402 C6.069 32.426 9.003 32.458 11.938 32.5 C11.681 31.06 11.407 29.623 11.125 28.188 C10.974 27.387 10.823 26.586 10.668 25.762 C9.844 23.21 9.03 22.147 6.938 20.5 C-2.172 17.463 -13.437 18.834 -22.059 22.625 C-24.062 23.5 -24.062 23.5 -26.062 23.5 C-27.352 20.762 -27.352 20.762 -28.688 17.188 C-29.357 15.43 -29.357 15.43 -30.039 13.637 C-31.062 10.5 -31.062 10.5 -31.062 7.5 C-21.404 1.669 -11.147 -0.029 0 0 Z " fill="#060606" transform="translate(602.0625,180.5)"></path>
<path d="M0 0 C5.725 6.283 8.696 12.739 8.676 21.224 C8.676 22.845 8.676 22.845 8.676 24.499 C8.671 25.659 8.665 26.82 8.66 28.016 C8.659 29.209 8.657 30.401 8.656 31.631 C8.65 35.441 8.638 39.252 8.625 43.062 C8.62 45.646 8.615 48.229 8.611 50.812 C8.6 57.146 8.583 63.479 8.562 69.812 C1.962 69.812 -4.637 69.812 -11.438 69.812 C-11.438 67.502 -11.438 65.192 -11.438 62.812 C-11.922 63.211 -12.407 63.609 -12.906 64.02 C-21.713 70.98 -29.112 73.036 -40.438 71.812 C-48.179 69.837 -54.642 66.244 -58.812 59.25 C-61.617 53.055 -61.646 45.338 -59.375 38.938 C-55.49 32.672 -50.4 29.218 -43.438 26.812 C-39.367 25.997 -35.529 25.693 -31.383 25.715 C-30.274 25.718 -29.166 25.721 -28.023 25.725 C-26.881 25.733 -25.739 25.741 -24.562 25.75 C-22.815 25.757 -22.815 25.757 -21.031 25.764 C-18.167 25.775 -15.302 25.792 -12.438 25.812 C-13.06 19.994 -13.817 17.573 -18.438 13.812 C-23.987 10.399 -31.065 11.082 -37.234 12.418 C-40.975 13.534 -44.363 14.776 -47.875 16.5 C-48.721 16.603 -49.566 16.706 -50.438 16.812 C-52.004 14.325 -52.649 11.623 -53.438 8.812 C-54.025 7.699 -54.025 7.699 -54.625 6.562 C-55.438 4.812 -55.438 4.812 -55.438 0.812 C-40.509 -8.662 -14.838 -10.71 0 0 Z " fill="#060606" transform="translate(320.4375,187.1875)"></path>
<path d="M0 0 C0.916 -0.012 1.832 -0.024 2.775 -0.037 C11.556 -0.056 18.596 1.578 25.562 7.188 C33.195 15.359 33.853 22.968 33.758 33.805 C33.755 35.017 33.752 36.229 33.749 37.478 C33.738 41.34 33.713 45.201 33.688 49.062 C33.677 51.685 33.668 54.307 33.66 56.93 C33.638 63.349 33.605 69.768 33.562 76.188 C30.251 76.361 26.94 76.468 23.625 76.562 C22.679 76.613 21.734 76.663 20.76 76.715 C18.227 76.769 16.02 76.809 13.562 76.188 C12.434 73.164 12.434 73.164 12.562 70.188 C11.016 71.363 11.016 71.363 9.438 72.562 C1.252 78.783 -9.643 78.244 -19.438 77.188 C-26.481 75.236 -30.815 70.372 -34.438 64.188 C-36.409 58.274 -36.687 51.35 -34.379 45.508 C-29.826 38.178 -23.587 34.547 -15.438 32.188 C-12.186 31.96 -12.186 31.96 -8.727 31.992 C-7.483 31.999 -6.239 32.005 -4.957 32.012 C-3.029 32.037 -3.029 32.037 -1.062 32.062 C0.246 32.072 1.554 32.081 2.902 32.09 C6.123 32.113 9.342 32.146 12.562 32.188 C12.28 30.561 11.986 28.936 11.688 27.312 C11.525 26.408 11.363 25.503 11.195 24.57 C10.732 22.022 10.732 22.022 8.562 20.188 C-0.353 16.073 -10.541 17.911 -19.438 21.188 C-20.428 21.847 -21.418 22.507 -22.438 23.188 C-23.428 23.188 -24.418 23.188 -25.438 23.188 C-26.54 20.894 -27.389 18.773 -28.188 16.375 C-28.421 15.732 -28.654 15.09 -28.895 14.428 C-30.57 9.586 -30.57 9.586 -29.438 6.188 C-26.707 4.836 -26.707 4.836 -23.25 3.562 C-22.122 3.137 -20.994 2.712 -19.832 2.273 C-13.197 0.151 -6.905 0.005 0 0 Z " fill="#060606" transform="translate(427.4375,180.8125)"></path>
<path d="M0 0 C5.508 -1.838 11.061 -3.039 16.774 -1.558 C22.534 2.473 23.164 12.06 24.364 18.559 C24.896 21.581 25.402 24.606 25.887 27.636 C27.242 38.856 27.242 38.856 33.228 47.621 C36.312 49.155 38.187 49.372 41.61 49.365 C42.727 49.37 43.845 49.376 44.996 49.381 C46.212 49.372 47.428 49.363 48.681 49.353 C50.659 49.356 52.637 49.36 54.614 49.363 C56.735 49.364 58.856 49.358 60.976 49.35 C65.402 49.333 69.827 49.342 74.252 49.354 C86.04 49.384 97.827 49.383 109.615 49.364 C117.362 49.352 125.11 49.354 132.857 49.383 C137.254 49.398 141.65 49.39 146.047 49.366 C149.428 49.353 152.808 49.373 156.189 49.388 C157.403 49.375 158.618 49.362 159.869 49.348 C169.044 49.437 169.044 49.437 172.762 52.319 C175 55 175 55 175.625 58.5 C174.916 62.472 173.828 64.172 171 67 C168.392 68.304 166.471 68.138 163.55 68.154 C162.392 68.163 161.234 68.171 160.041 68.18 C158.764 68.184 157.487 68.188 156.172 68.193 C154.818 68.201 153.465 68.209 152.111 68.218 C147.658 68.244 143.204 68.259 138.75 68.273 C137.215 68.279 135.681 68.284 134.146 68.29 C127.759 68.311 121.371 68.33 114.984 68.341 C105.841 68.357 96.698 68.391 87.555 68.448 C81.122 68.486 74.689 68.506 68.255 68.511 C64.416 68.515 60.577 68.527 56.738 68.559 C53.12 68.589 49.503 68.596 45.884 68.584 C43.937 68.584 41.99 68.608 40.043 68.633 C30.723 68.568 23.336 66.619 16.625 59.875 C9.96 51.145 8.325 38.739 5.875 28.25 C5.354 26.042 4.83 23.834 4.305 21.626 C3.833 19.635 3.365 17.642 2.898 15.649 C2.285 13.157 1.614 10.678 0.895 8.214 C0.077 5.278 -0.183 3.02 0 0 Z " fill="#060606" transform="translate(123,224)"></path>
<path d="M0 0 C9.24 0 18.48 0 28 0 C28 36.96 28 73.92 28 112 C22.06 108.535 22.06 108.535 16 105 C12.68 104.438 12.68 104.438 9.333 104.111 C5.496 103.835 3.32 103.073 0 101 C-3.076 94.227 -1.841 85.741 -1.562 78.516 C-1.533 76.257 -1.51 73.998 -1.494 71.739 C-1.433 65.792 -1.276 59.851 -1.099 53.906 C-0.935 47.84 -0.862 41.774 -0.781 35.707 C-0.61 23.801 -0.328 11.902 0 0 Z " fill="#FBB914" transform="translate(433,70)"></path>
<path d="M0 0 C7.26 0 14.52 0 22 0 C22 6.6 22 13.2 22 20 C28.27 20 34.54 20 41 20 C41 25.61 41 31.22 41 37 C34.73 37 28.46 37 22 37 C22.074 41.894 22.157 46.786 22.262 51.679 C22.296 53.342 22.324 55.006 22.346 56.669 C22.38 59.065 22.432 61.46 22.488 63.855 C22.495 64.595 22.501 65.335 22.508 66.097 C22.632 70.505 23.109 73.586 26 77 C30.222 77.415 33.037 77.315 37.066 75.996 C38.034 75.997 39.003 75.999 40 76 C41.602 78.776 42.378 80.652 43.125 83.688 C43.309 84.433 43.493 85.179 43.682 85.947 C44.074 88.137 44.074 88.137 44 92 C40.563 95.293 36.612 95.553 32 96 C30.559 96.153 30.559 96.153 29.09 96.309 C21.592 96.665 13.768 95.37 7.625 90.812 C2.673 85.507 -0.137 79.269 -0.114 71.966 C-0.113 71.185 -0.113 70.405 -0.113 69.601 C-0.108 68.768 -0.103 67.936 -0.098 67.078 C-0.096 66.218 -0.095 65.358 -0.093 64.472 C-0.088 61.731 -0.075 58.991 -0.062 56.25 C-0.057 54.389 -0.053 52.529 -0.049 50.668 C-0.038 46.112 -0.021 41.556 0 37 C-3.63 37 -7.26 37 -11 37 C-11 31.39 -11 25.78 -11 20 C-7.37 20 -3.74 20 0 20 C0 13.4 0 6.8 0 0 Z " fill="#080808" transform="translate(346,163)"></path>
<path d="M0 0 C7.26 0 14.52 0 22 0 C22 6.6 22 13.2 22 20 C28.27 20 34.54 20 41 20 C41 25.61 41 31.22 41 37 C34.73 37 28.46 37 22 37 C22.097 41.912 22.2 46.823 22.317 51.734 C22.356 53.404 22.39 55.074 22.422 56.745 C22.468 59.148 22.526 61.55 22.586 63.953 C22.597 64.698 22.609 65.443 22.621 66.211 C22.739 71.434 22.739 71.434 25 76 C29.269 77.423 33.301 77.538 37.613 76.172 C38.401 76.115 39.189 76.058 40 76 C41.145 78.133 41.145 78.133 41.812 81.125 C42.162 82.583 42.162 82.583 42.52 84.07 C43.429 89.617 43.429 89.617 43 92 C35.746 96.35 26.825 97.089 18.66 95.562 C12.725 93.939 7.831 90.84 4 86 C0.497 79.747 -0.568 74.474 -0.391 67.371 C-0.382 66.058 -0.382 66.058 -0.373 64.719 C-0.351 61.958 -0.301 59.198 -0.25 56.438 C-0.23 54.551 -0.212 52.665 -0.195 50.779 C-0.152 46.186 -0.083 41.593 0 37 C-0.626 37.012 -1.253 37.023 -1.898 37.035 C-2.716 37.044 -3.533 37.053 -4.375 37.062 C-5.593 37.08 -5.593 37.08 -6.836 37.098 C-9 37 -9 37 -11 36 C-11.148 33.277 -11.185 30.657 -11.125 27.938 C-11.116 27.179 -11.107 26.42 -11.098 25.639 C-11.074 23.759 -11.038 21.879 -11 20 C-7.37 20 -3.74 20 0 20 C0 13.4 0 6.8 0 0 Z " fill="#070707" transform="translate(711,163)"></path>
<path d="M0 0 C0.892 0.009 1.784 0.018 2.703 0.027 C3.379 0.039 4.054 0.051 4.75 0.062 C6.389 15.249 6.389 15.249 4.75 21.062 C0.498 23.402 -3.541 22.456 -8.25 22.062 C-13.155 24.427 -16.048 27.763 -19.25 32.062 C-20.146 34.75 -20.391 36.386 -20.439 39.151 C-20.456 39.968 -20.473 40.786 -20.49 41.628 C-20.504 42.506 -20.517 43.384 -20.531 44.289 C-20.55 45.192 -20.568 46.096 -20.587 47.027 C-20.666 50.896 -20.734 54.765 -20.802 58.635 C-20.854 61.457 -20.911 64.279 -20.969 67.102 C-20.982 67.984 -20.996 68.866 -21.01 69.775 C-21.137 75.95 -21.137 75.95 -22.25 77.062 C-29.18 77.062 -36.11 77.062 -43.25 77.062 C-43.25 51.983 -43.25 26.903 -43.25 1.062 C-36.32 1.062 -29.39 1.062 -22.25 1.062 C-22.25 5.023 -22.25 8.982 -22.25 13.062 C-21.59 13.062 -20.93 13.062 -20.25 13.062 C-19.969 12.315 -19.688 11.567 -19.398 10.797 C-18.049 7.583 -16.641 6.389 -13.875 4.312 C-13.104 3.72 -12.333 3.127 -11.539 2.516 C-7.746 0.108 -4.436 -0.058 0 0 Z " fill="#0A0A0A" transform="translate(692.25,180.9375)"></path>
<path d="M0 0 C0.324 10.491 0.573 20.981 0.725 31.476 C0.798 36.35 0.898 41.22 1.056 46.091 C1.208 50.792 1.292 55.49 1.328 60.194 C1.354 61.988 1.405 63.783 1.48 65.576 C1.699 70.998 1.82 75.844 0 81 C-3.542 83.217 -6.374 83.888 -10.497 84.469 C-14.092 85.014 -16.009 86.026 -19 88 C-19.66 88 -20.32 88 -21 88 C-21.082 87.196 -21.165 86.391 -21.25 85.562 C-21.621 84.294 -21.621 84.294 -22 83 C-22.988 83.032 -23.975 83.063 -24.993 83.096 C-26.481 82.554 -26.481 82.554 -28 82 C-29.06 78.027 -28.887 73.988 -28.867 69.898 C-28.878 68.673 -28.888 67.449 -28.899 66.186 C-28.915 62.917 -28.901 59.649 -28.878 56.38 C-28.873 53.077 -28.943 49.775 -28.996 46.473 C-28.999 43.948 -28.998 41.423 -28.992 38.898 C-29.015 37.713 -29.037 36.527 -29.06 35.306 C-28.924 27.195 -28.924 27.195 -26.27 23.762 C-24.26 22 -22.201 20.51 -20 19 C-18.864 17.922 -17.747 16.823 -16.664 15.691 C-16.157 15.173 -15.651 14.654 -15.129 14.119 C-14.101 13.056 -13.075 11.99 -12.051 10.924 C-10.736 9.58 -9.372 8.285 -8 7 C-7.34 7 -6.68 7 -6 7 C-5.315 5.676 -4.651 4.341 -4 3 C-1.321 0 -1.321 0 0 0 Z " fill="#FBBA15" transform="translate(416,91)"></path>
<path d="M0 0 C9.24 0 18.48 0 28 0 C28 19.8 28 39.6 28 60 C24.231 58.744 21.34 57.732 17.938 56 C14.848 54.441 13.204 53.982 9.703 54.286 C5.456 54.558 3.486 54.521 0 52 C-2.522 43.799 -1.191 34.318 -0.812 25.875 C-0.747 23.379 -0.688 20.883 -0.635 18.387 C-0.502 12.251 -0.248 6.137 0 0 Z " fill="#FBBA17" transform="translate(298,119)"></path>
<path d="M0 0 C3.935 3.146 6.802 7.148 9.047 11.637 C10.038 25.436 10.038 25.436 6.047 30.637 C-0.013 36.685 -3.84 39.76 -12.578 40.074 C-19.674 40.008 -23.892 38.612 -28.953 33.637 C-33.355 29.152 -34.332 24.922 -34.641 18.699 C-34.377 11.871 -32.706 7.535 -27.953 2.637 C-19.748 -4.686 -9.431 -5.836 0 0 Z " fill="#060606" transform="translate(178.953125,301.36328125)"></path>
<path d="M0 0 C5.473 3.131 9.496 7.811 12.25 13.438 C13.969 22.794 12.18 28.533 6.812 36.5 C4.082 39.75 1.96 39.855 -2.188 40.5 C-2.188 41.16 -2.188 41.82 -2.188 42.5 C-10.379 43.201 -16.341 42.209 -23.188 37.5 C-28.572 32.785 -30.237 27.26 -30.75 20.312 C-30.628 13.441 -27.511 8.666 -23.188 3.5 C-16.867 -2.253 -7.797 -3.457 0 0 Z " fill="#FABC1E" transform="translate(276.1875,299.5)"></path>
<path d="M0 0 C18.8 0 18.8 0 26 7 C30.992 13.846 32.958 18.534 32 27 C29.823 35.892 25.532 40.225 17.938 44.875 C14 46 14 46 0 46 C0 30.82 0 15.64 0 0 Z " fill="#FBBB18" transform="translate(192,181)"></path>
<path d="M0 0 C0.222 5.375 0.386 10.747 0.494 16.125 C0.54 17.955 0.601 19.785 0.679 21.614 C0.788 24.241 0.839 26.863 0.879 29.492 C0.925 30.313 0.972 31.134 1.02 31.98 C1.022 34.285 1.022 34.285 0 38 C-2.931 39.383 -5.809 39.646 -9 40 C-11.487 40.983 -11.487 40.983 -13.438 42.125 C-16.825 44 -16.825 44 -19 44 C-20.402 41.953 -20.402 41.953 -21.938 39.25 C-24.035 35.551 -24.035 35.551 -26.553 32.141 C-28.727 28.924 -28.717 26.311 -28.593 22.505 C-27.483 17.816 -23.976 15.851 -20.125 13.312 C-19.352 12.765 -18.578 12.218 -17.781 11.654 C-15.539 10.074 -13.272 8.537 -11 7 C-9.89 6.211 -8.782 5.417 -7.68 4.617 C-1.268 0 -1.268 0 0 0 Z " fill="#FBBB1A" transform="translate(281,135)"></path>
<path d="M0 0 C1.183 -0.005 2.365 -0.01 3.584 -0.016 C5.432 0.008 5.432 0.008 7.316 0.031 C8.544 0.016 9.772 0 11.037 -0.016 C12.221 -0.01 13.405 -0.005 14.625 0 C15.705 0.005 16.784 0.009 17.896 0.014 C21.577 0.652 23.267 1.898 25.879 4.531 C26.379 7.594 26.379 7.594 25.879 10.531 C24.334 12.568 23.157 13.392 20.879 14.531 C16.614 14.829 12.34 14.809 8.066 14.844 C6.877 14.873 5.688 14.902 4.463 14.932 C2.741 14.944 2.741 14.944 0.984 14.957 C-0.066 14.972 -1.116 14.986 -2.198 15.001 C-5.864 14.412 -7.522 13.139 -10.121 10.531 C-10.684 7.531 -10.684 7.531 -10.121 4.531 C-7.073 0.558 -4.919 0.021 0 0 Z " fill="#161515" transform="translate(91.12109375,246.46875)"></path>
<path d="M0 0 C5.548 3.173 9.638 7.895 12.25 13.688 C12.79 16.388 12.854 18.758 12.812 21.5 C10.352 21.662 7.901 21.781 5.438 21.875 C4.739 21.925 4.04 21.976 3.32 22.027 C1.289 22.086 1.289 22.086 -2.188 21.5 C-3.461 18.488 -3.461 18.488 -4.188 15.5 C-5.26 15.438 -6.332 15.376 -7.438 15.312 C-11.188 14.5 -11.188 14.5 -12.98 12.148 C-17.188 4.574 -17.188 4.574 -17.188 -0.5 C-11.555 -2.377 -5.481 -2.43 0 0 Z " fill="#0E0E0E" transform="translate(276.1875,299.5)"></path>
<path d="M0 0 C0.893 0.003 1.785 0.006 2.705 0.01 C4.098 0.022 4.098 0.022 5.52 0.035 C6.46 0.04 7.4 0.044 8.369 0.049 C10.69 0.061 13.011 0.077 15.332 0.098 C15.376 1.527 15.408 2.957 15.434 4.387 C15.452 5.183 15.471 5.979 15.491 6.799 C15.237 10.474 13.761 12.413 11.332 15.098 C6.866 17.795 3.404 18.553 -1.793 18.598 C-3.591 18.644 -3.591 18.644 -5.426 18.691 C-8.668 18.098 -8.668 18.098 -11.062 15.785 C-13.191 12.223 -13.324 10.182 -12.668 6.098 C-8.867 1.372 -5.944 -0.038 0 0 Z " fill="#F3F3F2" transform="translate(292.66796875,224.90234375)"></path>
<path d="M0 0 C0.893 0.003 1.785 0.006 2.705 0.01 C4.098 0.022 4.098 0.022 5.52 0.035 C6.46 0.04 7.4 0.044 8.369 0.049 C10.69 0.061 13.011 0.077 15.332 0.098 C15.359 1.535 15.378 2.973 15.395 4.41 C15.406 5.211 15.418 6.011 15.43 6.836 C15.303 9.777 14.841 11.579 12.758 13.703 C6.785 18.174 1.839 18.773 -5.531 18.797 C-8.668 18.098 -8.668 18.098 -11.051 15.773 C-13.199 12.219 -13.325 10.184 -12.668 6.098 C-8.867 1.372 -5.944 -0.038 0 0 Z " fill="#F2F2F1" transform="translate(598.66796875,224.90234375)"></path>
<path d="M0 0 C0.848 0.003 1.695 0.006 2.568 0.01 C3.449 0.018 4.331 0.027 5.238 0.035 C6.577 0.042 6.577 0.042 7.943 0.049 C10.146 0.061 12.348 0.077 14.551 0.098 C15.411 9.806 15.411 9.806 11.801 14.16 C8.611 17.584 6.036 17.983 1.457 18.336 C0.333 18.36 -0.791 18.385 -1.949 18.41 C-3.073 18.448 -4.197 18.485 -5.355 18.523 C-8.449 18.098 -8.449 18.098 -10.82 16.324 C-12.809 13.606 -13.072 11.41 -12.91 8.066 C-12.124 4.709 -10.103 3.134 -7.449 1.098 C-4.625 0.156 -2.92 -0.02 0 0 Z " fill="#F3F3F2" transform="translate(425.44921875,224.90234375)"></path>
<path d="M0 0 C4 1 4 1 6.188 3 C10.055 5.75 13.276 6.474 18 6 C21.603 4.635 24.642 2.939 28 1 C28 6.28 28 11.56 28 17 C18.76 17 9.52 17 0 17 C0 11.39 0 5.78 0 0 Z " fill="#FBBA18" transform="translate(343,136)"></path>
<path d="M0 0 C3.562 0.312 3.562 0.312 5.5 1.375 C7.196 4.467 6.993 6.868 6.562 10.312 C5 12.312 5 12.312 2.562 13.312 C-1.062 13.188 -1.062 13.188 -4.438 12.312 C-6.438 9.312 -6.438 9.312 -6.188 5.75 C-5.191 1.184 -4.693 0.427 0 0 Z " fill="#0F0F0F" transform="translate(104.4375,224.6875)"></path>
<path d="M0 0 C1.938 1.125 1.938 1.125 3 3 C3.425 7.078 3.313 8.531 1 12 C-2.497 13.088 -4.4 13.209 -7.875 12 C-10 10 -10 10 -10.5 6.5 C-10 3 -10 3 -8.938 1.062 C-5.88 -0.614 -3.409 -0.365 0 0 Z " fill="#FBBB19" transform="translate(86,179)"></path>
<path d="M0 0 C3.385 0.484 4.822 0.852 7.062 3.438 C7.683 7.084 7.537 8.744 5.438 11.812 C2.425 13.873 0.644 13.827 -2.938 13.438 C-3.598 13.107 -4.258 12.778 -4.938 12.438 C-6.407 5.542 -6.407 5.542 -4.875 1.938 C-2.938 0.438 -2.938 0.438 0 0 Z " fill="#FBC02C" transform="translate(14.9375,200.5625)"></path>
<path d="M0 0 C2 1.062 2 1.062 3 3 C2.667 9.333 2.667 9.333 0 12 C-1.875 12.266 -1.875 12.266 -4 12.25 C-4.701 12.255 -5.403 12.26 -6.125 12.266 C-8 12 -8 12 -10 10 C-10.546 3.995 -10.546 3.995 -8.938 1.062 C-5.88 -0.614 -3.409 -0.365 0 0 Z " fill="#FBBF28" transform="translate(43,202)"></path>
<path d="M0 0 C2.5 0.5 2.5 0.5 4.875 2.062 C6.5 4.5 6.5 4.5 6.438 8.125 C5.5 11.5 5.5 11.5 2.5 13.5 C-1.062 13.312 -1.062 13.312 -4.5 12.5 C-6.666 9.252 -7.052 8.269 -6.5 4.5 C-4.506 1.767 -3.338 0.668 0 0 Z " fill="#FBBF26" transform="translate(66.5,155.5)"></path>
<path d="M0 0 C2.5 0.5 2.5 0.5 4.875 2.062 C6.5 4.5 6.5 4.5 6.375 8.125 C5.5 11.5 5.5 11.5 3.5 13.5 C-0.133 13.974 -1.854 13.959 -4.875 11.812 C-6.5 9.5 -6.5 9.5 -7 7 C-6.171 2.856 -4.144 0.829 0 0 Z " fill="#EAEAE8" transform="translate(166.5,312.5)"></path>
<path d="M0 0 C5.989 -0.555 5.989 -0.555 8.938 1.062 C10.614 4.12 10.365 6.591 10 10 C8.812 11.938 8.812 11.938 7 13 C3.713 13.59 2.426 13.28 -0.375 11.438 C-2 9 -2 9 -1.812 5.375 C-1 2 -1 2 0 0 Z " fill="#F9F6EC" transform="translate(263,314)"></path>
<path d="M0 0 C3.422 -0.373 5.902 -0.638 8.938 1.125 C10.522 3.922 10.459 5.849 10 9 C8.438 10.938 8.438 10.938 6 12 C2.312 11.812 2.312 11.812 -1 11 C-2.386 8.229 -2.188 6.067 -2 3 C-1.34 2.01 -0.68 1.02 0 0 Z " fill="#FBBC1C" transform="translate(60,248)"></path>
<path d="M0 0 C2 1.375 2 1.375 3 3 C2.67 3.66 2.34 4.32 2 5 C1.608 4.484 1.216 3.969 0.812 3.438 C-0.951 1.706 -0.951 1.706 -3.562 2.188 C-6.144 2.846 -6.144 2.846 -8 5 C-8.356 6.662 -8.692 8.328 -9 10 C-9.33 10 -9.66 10 -10 10 C-10.359 3.655 -10.359 3.655 -8.938 1.062 C-5.88 -0.614 -3.409 -0.365 0 0 Z " fill="#FAD061" transform="translate(86,179)"></path>
<path d="M0 0 C0.66 0.33 1.32 0.66 2 1 C-0.148 4.222 -1.727 5.084 -5 7 C-5.557 7.557 -6.114 8.114 -6.688 8.688 C-7.121 9.121 -7.554 9.554 -8 10 C-8.66 10 -9.32 10 -10 10 C-8.582 6.611 -6.939 4.865 -4 2.688 C-3.299 2.155 -2.597 1.623 -1.875 1.074 C-1.256 0.72 -0.637 0.365 0 0 Z " fill="#FAC742" transform="translate(234,134)"></path>
<path d="M0 0 C-0.99 0.495 -0.99 0.495 -2 1 C-2.33 1.99 -2.66 2.98 -3 4 C-5.062 3.812 -5.062 3.812 -7 3 C-7 2.34 -7 1.68 -7 1 C-4.064 -0.924 -3.46 -1.153 0 0 Z " fill="#FACE58" transform="translate(423,23)"></path>
<path d="M0 0 C-1.75 1.625 -1.75 1.625 -4 3 C-6.25 2.188 -6.25 2.188 -8 1 C-5.072 0.024 -3.044 -0.082 0 0 Z " fill="#FACB50" transform="translate(453,15)"></path>
<path d="M0 0 C0.99 0.33 1.98 0.66 3 1 C1.515 1.99 1.515 1.99 0 3 C-0.66 2.34 -1.32 1.68 -2 1 C-1.34 0.67 -0.68 0.34 0 0 Z " fill="#FAC331" transform="translate(423,22)"></path>
<path d="M0 0 C0.66 0 1.32 0 2 0 C1.67 0.99 1.34 1.98 1 3 C0.34 3 -0.32 3 -1 3 C-0.67 2.01 -0.34 1.02 0 0 Z " fill="#363636" transform="translate(398,187)"></path>
</svg>